<svg width="107" height="107" viewBox="0 0 107 107" fill="none" xmlns="http://www.w3.org/2000/svg">
<path d="M33.6947 12.627C30.7013 12.6262 27.7787 13.5374 25.3161 15.2392C22.8536 16.9411 20.9679 19.3528 19.9104 22.1532L10.4582 39.9647C9.59032 39.5408 8.63765 39.319 7.67175 39.316C6.23047 39.2238 4.81108 39.7045 3.72252 40.6537C2.63395 41.6028 1.96433 42.9435 1.85938 44.3839C1.90499 45.4639 2.29082 46.5019 2.96172 47.3495C3.63262 48.1971 4.55427 48.811 5.59497 49.1034C3.65799 51.9528 2.62336 55.3192 2.62565 58.7646V66.1661C2.62132 69.0182 3.45557 71.8086 5.02462 74.1903V87.9005C5.02456 88.7519 5.1922 89.5949 5.51798 90.3815C5.84375 91.168 6.32127 91.8827 6.92327 92.4847C7.52527 93.0867 8.23996 93.5642 9.02653 93.89C9.81309 94.2158 10.6561 94.3834 11.5075 94.3834H18.5564C19.4077 94.3834 20.2507 94.2158 21.0373 93.89C21.8239 93.5642 22.5386 93.0867 23.1406 92.4847C23.7426 91.8827 24.2201 91.168 24.5459 90.3815C24.8716 89.5949 25.0393 88.7519 25.0392 87.9005V80.8125H82.1311V87.6785C82.1305 88.5302 82.2977 89.3737 82.6232 90.1608C82.9488 90.9478 83.4262 91.663 84.0283 92.2655C84.6303 92.868 85.3452 93.3459 86.132 93.6719C86.9189 93.998 87.7623 94.1657 88.614 94.1657H95.6629C96.5146 94.1657 97.358 93.998 98.1448 93.6719C98.9317 93.3459 99.6466 92.868 100.249 92.2655C100.851 91.663 101.328 90.9478 101.654 90.1608C101.979 89.3737 102.146 88.5302 102.146 87.6785V74.7171C103.95 72.231 104.921 69.2378 104.919 66.1661V58.7646C104.921 55.2938 103.87 51.904 101.906 49.0425C102.917 48.7302 103.807 48.1127 104.453 47.2747C105.099 46.4367 105.471 45.4193 105.516 44.3621C105.41 42.9219 104.74 41.5816 103.652 40.6326C102.563 39.6836 101.144 39.2026 99.7032 39.2942C98.8497 39.2959 98.0049 39.4661 97.2172 39.7949L88.3005 22.1619C87.2439 19.3602 85.3587 16.947 82.8962 15.2436C80.4336 13.5402 77.5106 12.6275 74.5163 12.627H33.6947ZM36.9992 30.1816C37.0123 30.1812 37.0254 30.1812 37.0384 30.1816H43.2426C43.3939 30.1817 43.5389 30.2418 43.6458 30.3488C43.7528 30.4557 43.8129 30.6007 43.813 30.752V33.164H63.5533V30.752C63.553 30.677 63.5676 30.6027 63.5962 30.5334C63.6248 30.4641 63.6668 30.4011 63.7198 30.3481C63.7728 30.2951 63.8358 30.2531 63.9051 30.2245C63.9744 30.196 64.0487 30.1814 64.1237 30.1816H70.3322C70.4072 30.1814 70.4815 30.196 70.5508 30.2245C70.6201 30.2531 70.6831 30.2951 70.7361 30.3481C70.7891 30.4011 70.8311 30.4641 70.8597 30.5334C70.8883 30.6027 70.9028 30.677 70.9026 30.752V33.164H76.9022C77.1229 33.1638 77.3416 33.207 77.5456 33.2914C77.7496 33.3758 77.935 33.4995 78.0911 33.6557C78.2472 33.8118 78.371 33.9971 78.4554 34.2012C78.5397 34.4052 78.583 34.6238 78.5828 34.8446L78.5915 65.7264C78.5909 66.1715 78.4134 66.5982 78.0983 66.9125C77.7831 67.2269 77.356 67.4032 76.9109 67.4026H30.4641C30.0192 67.4026 29.5924 67.2261 29.2774 66.9119C28.9623 66.5977 28.7847 66.1713 28.7835 65.7264V34.8446C28.7836 34.3989 28.9607 33.9715 29.2758 33.6563C29.591 33.3412 30.0184 33.1641 30.4641 33.164H36.4681V30.752C36.4678 30.6073 36.5225 30.4679 36.6211 30.362C36.7197 30.2561 36.8549 30.1917 36.9992 30.1816ZM40.073 34.2612C39.6387 34.2736 39.2263 34.4547 38.9232 34.7659C38.6201 35.0772 38.45 35.4942 38.4491 35.9287V37.2262H37.1516C36.7082 37.2262 36.283 37.4023 35.9694 37.7158C35.6559 38.0294 35.4797 38.4546 35.4797 38.898C35.4797 39.3414 35.6559 39.7667 35.9694 40.0802C36.283 40.3938 36.7082 40.5699 37.1516 40.5699H38.4491V41.8673C38.4491 42.3108 38.6252 42.736 38.9387 43.0495C39.2523 43.3631 39.6775 43.5392 40.1209 43.5392C40.5643 43.5392 40.9896 43.3631 41.3031 43.0495C41.6167 42.736 41.7928 42.3108 41.7928 41.8673V40.5699H43.0902C43.5337 40.5699 43.9589 40.3938 44.2724 40.0802C44.586 39.7667 44.7621 39.3414 44.7621 38.898C44.7621 38.4546 44.586 38.0294 44.2724 37.7158C43.9589 37.4023 43.5337 37.2262 43.0902 37.2262H41.7928V35.9287C41.7923 35.7054 41.7471 35.4845 41.6599 35.279C41.5726 35.0735 41.4451 34.8875 41.2848 34.7321C41.1245 34.5767 40.9347 34.4549 40.7265 34.374C40.5184 34.2932 40.2962 34.2548 40.073 34.2612ZM64.0932 37.2262C63.6498 37.2262 63.2245 37.4023 62.911 37.7158C62.5974 38.0294 62.4213 38.4546 62.4213 38.898C62.4213 39.3414 62.5974 39.7667 62.911 40.0802C63.2245 40.3938 63.6498 40.5699 64.0932 40.5699H70.0318C70.4752 40.5699 70.9005 40.3938 71.214 40.0802C71.5275 39.7667 71.7037 39.3414 71.7037 38.898C71.7037 38.4546 71.5275 38.0294 71.214 37.7158C70.9005 37.4023 70.4752 37.2262 70.0318 37.2262H64.0932ZM54.9283 40.8355C54.6582 40.8429 54.3939 40.9157 54.1581 41.0477C53.9223 41.1796 53.722 41.3668 53.5743 41.5931L47.701 50.4139C47.5332 50.6656 47.4369 50.958 47.4222 51.26C47.4075 51.5621 47.475 51.8625 47.6175 52.1292C47.76 52.396 47.9722 52.619 48.2315 52.7747C48.4908 52.9304 48.7874 53.0128 49.0898 53.0132H54.789L50.6398 59.2348C50.5163 59.4175 50.43 59.6227 50.3862 59.8388C50.3423 60.0549 50.3416 60.2776 50.3841 60.4939C50.4266 60.7103 50.5115 60.9161 50.6339 61.0996C50.7563 61.283 50.9137 61.4404 51.0972 61.5627C51.2807 61.685 51.4865 61.7698 51.7029 61.8122C51.9193 61.8547 52.1419 61.8539 52.358 61.8099C52.5741 61.7659 52.7793 61.6796 52.9619 61.556C53.1445 61.4324 53.3008 61.2738 53.4219 61.0896L59.2909 52.2687C59.4584 52.0174 59.5548 51.7253 59.5696 51.4236C59.5845 51.122 59.5174 50.8219 59.3754 50.5553C59.2334 50.2887 59.0218 50.0656 58.7632 49.9096C58.5045 49.7536 58.2084 49.6706 57.9064 49.6694H57.902H52.2115L56.3564 43.4478C56.5297 43.1933 56.6294 42.8958 56.6444 42.5883C56.6594 42.2807 56.5892 41.975 56.4415 41.7048C56.2938 41.4346 56.0744 41.2104 55.8073 41.057C55.5403 40.9036 55.2362 40.827 54.9283 40.8355Z" fill="url(#paint0_linear_0_348)" stroke="black"/>
<defs>
<linearGradient id="paint0_linear_0_348" x1="41.0962" y1="37.0607" x2="92.6991" y2="82.0953" gradientUnits="userSpaceOnUse">
<stop stop-color="white"/>
<stop offset="1" stop-color="#DDFD36"/>
</linearGradient>
</defs>
</svg>
